<?xml version="1.0" encoding="UTF-8"?>
<svg version="1.1" xmlns="http://www.w3.org/2000/svg" width="3375" height="3375">
<path d="M0 0 C1113.75 0 2227.5 0 3375 0 C3375 1113.75 3375 2227.5 3375 3375 C2261.25 3375 1147.5 3375 0 3375 C0 2261.25 0 1147.5 0 0 Z " fill="#F6F6F6" transform="translate(0,0)"/>
<path d="M0 0 C0.98097656 0.21317871 1.96195313 0.42635742 2.97265625 0.64599609 C66.43059942 14.87438627 127.55504545 45.64442036 179 85 C179.66902344 85.51038818 180.33804688 86.02077637 181.02734375 86.54663086 C187.5040282 91.5194041 193.85109546 96.63758011 200.0625 101.9375 C200.81926025 102.58102417 200.81926025 102.58102417 201.59130859 103.23754883 C211.98817247 112.19930249 221.89280034 121.70606156 231.59472656 131.40942383 C233.25828808 133.07077708 234.92975104 134.7239069 236.6015625 136.37695312 C243.20091608 142.94226529 249.21161034 149.70045555 255 157 C255.94700724 158.12477877 256.90023903 159.24438834 257.86328125 160.35546875 C278.02081976 183.66362731 295.41122271 209.88503252 310 237 C310.48339844 237.88606934 310.96679688 238.77213867 311.46484375 239.68505859 C339.41520944 291.05746775 358.47437157 348.22893113 364.88037109 406.46704102 C365.12617733 408.69818644 365.38084382 410.92819216 365.63671875 413.15820312 C366.12224092 417.43579696 366.57122398 421.71637223 367 426 C367.16447632 427.61890137 367.16447632 427.61890137 367.33227539 429.27050781 C368.29570352 440.42526635 368.18607103 451.62122851 368.18530273 462.80908203 C368.1874738 466.33248263 368.20564017 469.85556139 368.22460938 473.37890625 C368.26131222 488.35320952 367.51406891 503.10430853 366 518 C365.87996613 519.21637398 365.87996613 519.21637398 365.75750732 520.45732117 C364.67262089 531.4120511 362.80379594 542.12792695 360.62255859 552.9140625 C359.93210428 556.33654977 359.25779081 559.76208247 358.58203125 563.1875 C355.95693318 576.34029067 353.10471909 589.23124842 349 602 C348.63519531 603.22074219 348.27039062 604.44148438 347.89453125 605.69921875 C341.45339191 627.08907739 333.32946581 647.71492312 324 668 C323.57041992 668.9389209 323.14083984 669.8778418 322.69824219 670.84521484 C303.79260625 711.98207395 278.30535044 750.91188496 247.5546875 784.19921875 C246.21953947 785.66298196 244.88824465 787.13119532 243.60351562 788.6394043 C238.22512348 794.94605108 232.39815961 800.78794488 226.54052734 806.64477539 C224.76238228 808.42510252 222.99240439 810.21328377 221.22265625 812.00195312 C214.45306996 818.80453501 207.52096027 825.02897783 200 831 C198.83569288 831.99455053 197.67822782 832.99723184 196.53125 834.01171875 C175.14649842 852.92340382 150.88961405 869.08503486 126 883 C125.15759766 883.4738916 124.31519531 883.9477832 123.44726562 884.43603516 C78.40618832 909.688547 30.4191615 926.3842364 -20 937 C-20.90105469 937.19480957 -21.80210937 937.38961914 -22.73046875 937.59033203 C-51.5235695 943.74513632 -80.69637267 945.37791992 -110.0625 945.375 C-111.83001617 945.37771912 -111.83001617 945.37771912 -113.63323975 945.38049316 C-128.09264205 945.37797098 -142.35505543 944.80045849 -156.73245239 943.24499512 C-158.72457487 943.02975806 -160.71850512 942.8313928 -162.71264648 942.63574219 C-186.16653569 940.33382982 -209.26401845 936.20819749 -232 930 C-232.84191895 929.77199707 -233.68383789 929.54399414 -234.55126953 929.30908203 C-293.81812027 913.14741227 -350.99910248 886.40005558 -399.38037109 848.27246094 C-401.05536423 846.95650311 -402.73960636 845.65315451 -404.42578125 844.3515625 C-422.19763662 830.58798603 -438.58195782 815.48178528 -454.5 799.625 C-455.3367627 798.79291016 -456.17352539 797.96082031 -457.03564453 797.10351562 C-461.89649687 792.22998195 -466.53616324 787.23843541 -471 782 C-471.87730612 780.99062629 -472.75488861 779.98149269 -473.6328125 778.97265625 C-481.10884781 770.2428031 -488.12114957 761.20576014 -495 752 C-495.52851563 751.2977832 -496.05703125 750.59556641 -496.6015625 749.87207031 C-535 698.6820351 -535 698.6820351 -535 686 C-530.18438465 685.89927922 -525.36941426 685.82768397 -520.55297852 685.78027344 C-518.92298677 685.76045979 -517.29306304 685.73340077 -515.66333008 685.69824219 C-505.23476557 685.47930351 -495.90728554 686.27274802 -485.82983398 689.03613281 C-480.17146028 690.46019474 -474.59506128 691.12477095 -468.75 691.1328125 C-467.8204248 691.13506836 -466.89084961 691.13732422 -465.93310547 691.13964844 C-464.96518066 691.13481445 -463.99725586 691.12998047 -463 691.125 C-461.98180176 691.12016602 -460.96360352 691.11533203 -459.91455078 691.11035156 C-419.42561206 690.790887 -383.17671446 679.3021793 -352 653 C-350.91671129 652.14577674 -349.83338693 651.29159869 -348.75 650.4375 C-345.13444371 647.23280238 -342.09996348 643.6970876 -339 640 C-337.96359375 638.81277344 -337.96359375 638.81277344 -336.90625 637.6015625 C-320.45709599 618.31435023 -310.14358048 595.13520404 -303 571 C-302.69521729 569.99936523 -302.69521729 569.99936523 -302.38427734 568.97851562 C-298.30165791 555.35317371 -296.75916635 541.07436012 -295 527 C-294.91231857 526.32061874 -294.82463715 525.64123749 -294.73429871 524.94126892 C-294.0533274 519.34529812 -293.81147563 513.81815491 -293.76171875 508.18359375 C-293.7519249 507.26180832 -293.74213104 506.34002289 -293.73204041 505.39030457 C-293.47422854 474.76042635 -295.16641436 445.55875477 -304 416 C-304.22381348 415.24299805 -304.44762695 414.48599609 -304.67822266 413.70605469 C-309.97560699 396.27493045 -317.99151015 378.55359675 -329 364 C-329.39622559 363.46149414 -329.79245117 362.92298828 -330.20068359 362.36816406 C-353.69583889 330.50941476 -388.65390993 308.77709868 -428.04541016 302.68359375 C-438.95755381 301.14797255 -449.86508812 300.80293227 -460.875 300.75 C-462.06222656 300.74073486 -463.24945312 300.73146973 -464.47265625 300.72192383 C-476.31007817 300.7638015 -487.40168227 302.68033645 -499 305 C-499 280.25 -499 255.5 -499 230 C-507.91 230 -516.82 230 -526 230 C-520.26449517 215.66123792 -510.66768692 202.59924177 -501.59033203 190.18017578 C-499.91082315 187.87774804 -498.25012019 185.56242072 -496.58984375 183.24609375 C-489.79194781 173.82285569 -482.68011479 164.85613273 -474.93041992 156.20141602 C-473.40087091 154.45714594 -471.89877035 152.69827148 -470.4074707 150.92163086 C-463.65412808 142.89688527 -456.60673801 135.29110187 -449.16333008 127.90258789 C-447.42745269 126.17751523 -445.7026491 124.44188009 -443.97851562 122.70507812 C-438.02962914 116.7495341 -432.00191493 111.13655639 -425.38549805 105.92016602 C-422.9475915 103.95781467 -420.65960845 101.887798 -418.375 99.75 C-411.31295892 93.33401316 -403.64782417 87.69075548 -396 82 C-395.2668457 81.45263184 -394.53369141 80.90526367 -393.77832031 80.34130859 C-382.53514095 71.97978445 -370.99651367 64.23844875 -359 57 C-358.030625 56.41460449 -357.06125 55.82920898 -356.0625 55.22607422 C-321.43423742 34.4633265 -284.03131512 17.3594933 -245.04345703 6.57226562 C-243.00055817 6.00015632 -240.96704965 5.40161302 -238.93359375 4.796875 C-216.39585938 -1.81811686 -193.28048423 -6.05713157 -170 -9 C-168.28876953 -9.22647217 -168.28876953 -9.22647217 -166.54296875 -9.45751953 C-111.36993325 -16.56894944 -54.20044471 -11.80839247 0 0 Z " fill="#FE0000" transform="translate(2591,1221)"/>
<path d="M0 0 C1.86000752 1.69954213 3.67920803 3.43231732 5.484375 5.18994141 C6.02674805 5.71338135 6.56912109 6.23682129 7.12792969 6.77612305 C12.80951302 12.54920689 16.44027256 18.51512677 21.234375 25.43994141 C21.564375 12.56994141 21.894375 -0.30005859 22.234375 -13.56005859 C62.494375 -13.56005859 102.754375 -13.56005859 144.234375 -13.56005859 C144.27852393 24.98874888 144.31542991 63.53753237 144.33650566 102.08635791 C144.33900686 106.64464881 144.34159553 111.20293965 144.34423828 115.76123047 C144.34502521 117.12235435 144.34502521 117.12235435 144.34582804 118.51097567 C144.35451402 133.17460567 144.37027398 147.83821987 144.38868059 162.50184052 C144.40743004 177.56499175 144.41850236 192.62813475 144.42255199 207.69129717 C144.42528661 216.97473574 144.43390162 226.25812965 144.45020793 235.54155447 C144.46083718 241.92060884 144.46396228 248.29964036 144.46137775 254.67870294 C144.46010564 258.35074659 144.46195794 262.0227126 144.47278595 265.6947422 C144.58714004 306.53212694 139.18812127 343.80620426 109.859375 374.18994141 C80.80401571 402.34372396 38.21113546 413.38079718 -1.37890625 413.67822266 C-2.45933701 413.68792587 -3.53976776 413.69762909 -4.65293884 413.70762634 C-8.1280391 413.73243636 -11.60294517 413.74513683 -15.078125 413.75244141 C-16.85515808 413.75636902 -16.85515808 413.75636902 -18.66809082 413.76037598 C-37.04658816 413.76473063 -54.70036193 412.99257718 -72.765625 409.43994141 C-74.01206787 409.20766846 -74.01206787 409.20766846 -75.28369141 408.97070312 C-110.33917469 402.29100247 -144.90546674 386.11912744 -165.4453125 355.99853516 C-174.421555 342.43274494 -181.03223602 325.03482738 -180.828125 308.62744141 C-180.82361328 307.93457031 -180.81910156 307.24169922 -180.81445312 306.52783203 C-180.80275656 304.83183072 -180.78482424 303.13587437 -180.765625 301.43994141 C-170.12058569 300.78075585 -159.47474724 300.1355204 -148.828125 299.50244141 C-148.04369144 299.45578842 -147.25925789 299.40913544 -146.45105362 299.36106873 C-121.22802889 297.86537272 -96.03616985 296.70811296 -70.765625 296.43994141 C-70.57625366 297.44988159 -70.57625366 297.44988159 -70.38305664 298.48022461 C-70.21153076 299.37056396 -70.04000488 300.26090332 -69.86328125 301.17822266 C-69.69578369 302.05776611 -69.52828613 302.93730957 -69.35571289 303.84350586 C-67.70117539 311.12360778 -64.43340989 315.49816189 -58.37890625 319.83837891 C-43.55171643 328.92529643 -24.83007307 330.74620305 -7.87109375 327.75244141 C2.31180603 324.90739374 9.89019242 319.64911318 15.234375 310.43994141 C19.76443644 300.50062896 21.5623419 290.3563712 21.4296875 279.49462891 C21.4268576 278.59874054 21.42402771 277.70285217 21.42111206 276.77981567 C21.4100434 273.95804676 21.3849651 271.13661207 21.359375 268.31494141 C21.34932794 266.38525854 21.34020514 264.45557062 21.33203125 262.52587891 C21.31014794 257.83044041 21.27571252 253.13524729 21.234375 248.43994141 C20.44752319 249.53967285 20.44752319 249.53967285 19.64477539 250.66162109 C14.84940068 257.31840547 9.85154304 263.46269849 4.234375 269.43994141 C3.42613281 270.36226562 3.42613281 270.36226562 2.6015625 271.30322266 C-11.60349313 286.82884878 -32.78881392 293.64567177 -53.24609375 294.72119141 C-84.78758155 295.70956278 -116.82850878 285.4447857 -140.36328125 264.27197266 C-170.10592661 236.32440001 -182.45180121 193.3146967 -183.98144531 153.54492188 C-185.35401004 107.7789522 -181.45356887 56.41832255 -149.765625 20.43994141 C-149.06824219 19.61107422 -148.37085938 18.78220703 -147.65234375 17.92822266 C-126.9368315 -6.09882797 -98.49189099 -16.75419458 -67.55859375 -19.24755859 C-42.39238133 -21.00624566 -19.34760084 -17.09501789 0 0 Z " fill="#000000" transform="translate(617.765625,1579.56005859375)"/>
<path d="M0 0 C40.26 0 80.52 0 122 0 C122.33 37.62 122.66 75.24 123 114 C125.97 109.71 128.94 105.42 132 101 C145.18715794 84.27167517 163.97645824 72.02655121 185.39453125 69.390625 C219.67832957 66.07733083 252.75064119 73.6900655 280 95 C280.71800781 95.556875 281.43601562 96.11375 282.17578125 96.6875 C300.6600201 111.76998314 311.8372835 134.77398273 319 157 C319.23847656 157.73154297 319.47695312 158.46308594 319.72265625 159.21679688 C327.61118927 184.30233187 329.19390731 212.90823914 328 239 C327.95601074 239.99854004 327.91202148 240.99708008 327.86669922 242.02587891 C326.08488171 277.51899614 317.22566141 314.22028733 294 342 C293.32839844 342.83402344 292.65679688 343.66804688 291.96484375 344.52734375 C276.84591027 362.41572672 257.12952945 372.4811534 235 379 C234.33935547 379.1949707 233.67871094 379.38994141 232.99804688 379.59082031 C222.4554378 382.48976066 211.53629114 382.30330047 200.6875 382.375 C199.95384216 382.38312714 199.22018433 382.39125427 198.46429443 382.39962769 C186.085547 382.50222164 174.96108804 381.1062063 163.875 375.25 C163.19832275 374.90146973 162.52164551 374.55293945 161.82446289 374.19384766 C156.21243738 371.24226358 151.00380505 367.9022211 146 364 C145.3915625 363.54367187 144.783125 363.08734375 144.15625 362.6171875 C135.45630667 355.69677803 129.29217383 345.98881976 123 337 C122.67 349.87 122.34 362.74 122 376 C81.74 376 41.48 376 0 376 C0 251.92 0 127.84 0 0 Z " fill="#000000" transform="translate(1931,1491)"/>
<path d="M0 0 C7.31904474 6.85232305 13.22629567 14.73132612 18.375 23.3125 C18.705 10.4425 19.035 -2.4275 19.375 -15.6875 C59.965 -15.6875 100.555 -15.6875 142.375 -15.6875 C142.375 83.9725 142.375 183.6325 142.375 286.3125 C101.785 286.3125 61.195 286.3125 19.375 286.3125 C19.045 272.7825 18.715 259.2525 18.375 245.3125 C14.91 250.7575 14.91 250.7575 11.375 256.3125 C-1.55164536 273.41975191 -19.77959623 287.23559126 -41.35986328 290.91113281 C-47.74209692 291.69566938 -54.14213988 291.70557395 -60.5625 291.6875 C-61.28944061 291.68695618 -62.01638123 291.68641235 -62.76535034 291.68585205 C-90.47466849 291.59073954 -117.4937608 283.91795135 -138.625 265.3125 C-139.43195313 264.64863281 -140.23890625 263.98476562 -141.0703125 263.30078125 C-158.9470499 248.14198041 -169.58623194 227.32297994 -176.625 205.3125 C-176.86589355 204.5596875 -177.10678711 203.806875 -177.35498047 203.03125 C-182.94193662 185.16539714 -185.7068392 166.56510592 -185.86328125 147.85546875 C-185.8730751 146.88227692 -185.88286896 145.90908508 -185.89295959 144.90640259 C-186.25645785 99.40782167 -182.15459678 51.94721608 -150.625 16.3125 C-150.02558594 15.55839844 -149.42617187 14.80429688 -148.80859375 14.02734375 C-142.84813513 6.72803481 -135.3438043 1.58922123 -127.625 -3.6875 C-126.78066406 -4.27660156 -125.93632813 -4.86570312 -125.06640625 -5.47265625 C-88.29690498 -29.36964581 -33.26448152 -28.74535728 0 0 Z " fill="#000000" transform="translate(1739.625,1581.6875)"/>
<path d="M0 0 C8.55755163 7.75893751 15.21882096 16.33541627 21.34814453 26.14233398 C21.67814453 13.27233398 22.00814453 0.40233398 22.34814453 -12.85766602 C62.93814453 -12.85766602 103.52814453 -12.85766602 145.34814453 -12.85766602 C145.34814453 86.47233398 145.34814453 185.80233398 145.34814453 288.14233398 C104.75814453 288.14233398 64.16814453 288.14233398 22.34814453 288.14233398 C22.01814453 275.27233398 21.68814453 262.40233398 21.34814453 249.14233398 C18.37814453 253.43233398 15.40814453 257.72233398 12.34814453 262.14233398 C2.84953915 274.01235108 -8.52764347 283.27561447 -22.65185547 289.14233398 C-23.77720703 289.62959961 -24.90255859 290.11686523 -26.06201172 290.61889648 C-50.76778008 300.1163808 -84.79146574 295.05391127 -108.65185547 285.14233398 C-118.57335234 280.72804854 -127.22855526 274.98315028 -135.65185547 268.14233398 C-136.37888672 267.56870117 -137.10591797 266.99506836 -137.85498047 266.40405273 C-162.69538645 245.91560764 -174.07934004 212.69960171 -179.65185547 182.14233398 C-179.8170166 181.29413086 -179.98217773 180.44592773 -180.15234375 179.57202148 C-189.12706716 132.20181644 -184.41231029 72.93999759 -157.34033203 31.91162109 C-152.95365709 25.50566799 -148.00618405 19.74840315 -142.65185547 14.14233398 C-142.05244141 13.4681543 -141.45302734 12.79397461 -140.83544922 12.09936523 C-108.10650408 -23.31575683 -37.1207617 -32.32136873 0 0 Z " fill="#000000" transform="translate(987.65185546875,1578.857666015625)"/>
<path d="M0 0 C108.24 0 216.48 0 328 0 C328 71 328 71 318.01342773 89.03100586 C310.66375698 96.35171076 310.66375698 96.35171076 307.84240532 98.63386345 C303.99318504 101.82842852 300.42130991 105.26752031 296.83522034 108.75160217 C291.15643362 114.20906468 285.32520847 119.46131642 279.40370756 124.65310246 C272.67974393 130.56540528 266.1629089 136.68830096 259.65324485 142.83450496 C251.69297071 150.34734926 243.70789144 157.82926188 235.5643158 165.14353943 C234.99435194 165.65559783 234.42438809 166.16765623 233.8371526 166.69523156 C231.18283811 169.07627401 228.52213795 171.44966686 225.85168457 173.81259155 C221.91198412 177.32582575 218.06023096 180.78434036 214.63172913 184.8049469 C209.41248185 190.83376092 203.63857875 196.36142125 198 202 C241.89 202.33 285.78 202.66 331 203 C331 235.67 331 268.34 331 302 C222.76 302 114.52 302 3 302 C3 277.91 3 253.82 3 229 C12.70493216 219.9016261 22.41272266 210.80706345 32.14111328 201.73388672 C35.26146303 198.82336349 38.38067102 195.91161713 41.5 193 C42.74999459 191.83332754 43.99999459 190.66666087 45.25 189.5 C45.86875 188.9225 46.4875 188.345 47.125 187.75 C49 186 50.875 184.25 52.75 182.5 C53.6783667 181.6335083 53.6783667 181.6335083 54.62548828 180.74951172 C55.87381737 179.58442625 57.12218967 178.41938709 58.37060547 177.25439453 C61.52152888 174.31391631 64.67166566 171.37260346 67.8203125 168.4296875 C76.37764306 160.43334967 84.96949308 152.47569503 93.58398438 144.54101562 C99.86514592 138.75431206 106.13251055 132.95342616 112.375 127.125 C112.99624756 126.54500244 113.61749512 125.96500488 114.25756836 125.36743164 C117.50934764 122.3301751 120.75812231 119.28975638 124.00390625 116.24609375 C124.66277832 115.62911621 125.32165039 115.01213867 126.00048828 114.37646484 C127.24338113 113.21252561 128.48532784 112.04757474 129.72607422 110.88134766 C134.07160315 106.81404972 138.51356875 102.92562734 143 99 C72.215 98.505 72.215 98.505 0 98 C0 65.66 0 33.32 0 0 Z " fill="#010101" transform="translate(1181,1566)"/>
<path d="M0 0 C6.19058977 1.98821861 12.60064357 3.04446812 18.99511719 4.18823242 C25.09617375 5.36178154 30.13944271 7.08652138 35.58325195 10.10180664 C37.64782654 11.15308737 39.48459335 11.74259778 41.74609375 12.203125 C41.74609375 12.863125 41.74609375 13.523125 41.74609375 14.203125 C45.70609375 15.193125 45.70609375 15.193125 49.74609375 16.203125 C49.74609375 16.863125 49.74609375 17.523125 49.74609375 18.203125 C50.40480469 18.26757812 51.06351563 18.33203125 51.7421875 18.3984375 C55.9448866 19.52425806 59.1784289 21.72899907 62.80859375 24.078125 C63.51564453 24.52542969 64.22269531 24.97273438 64.95117188 25.43359375 C67.74464046 27.21197093 70.47484092 28.9980096 73.1171875 30.99609375 C74.69015403 32.3340656 74.69015403 32.3340656 76.74609375 32.640625 C79.52913995 33.42335674 80.71827463 35.15710284 82.74609375 37.203125 C90.36772901 43.48420809 90.36772901 43.48420809 99.74609375 45.203125 C102.63220164 44.34141565 105.4032691 43.34039212 108.1953125 42.2109375 C120.35853326 37.40525457 135.95876017 39.21897469 147.74609375 44.203125 C148.41640625 44.59757812 149.08671875 44.99203125 149.77734375 45.3984375 C152.50892412 46.51491678 153.96985285 46.12709942 156.74609375 45.203125 C158.86645706 43.74225228 158.86645706 43.74225228 160.93359375 41.828125 C167.62896551 36.24025835 175.08952289 31.96103073 182.56933594 27.51416016 C185.43019149 25.79110113 188.24941153 24.00525441 191.06396484 22.20776367 C193.19555904 20.93468528 195.44294913 20.12438285 197.74609375 19.203125 C198.93927476 18.45917056 200.12166504 17.69781147 201.296875 16.92578125 C205.83203552 14.06314761 210.54144156 11.82210609 215.43359375 9.640625 C216.24248047 9.26744141 217.05136719 8.89425781 217.88476562 8.50976562 C220.48218606 7.34204338 223.10319847 6.26365591 225.74609375 5.203125 C226.61097412 4.82728271 227.47585449 4.45144043 228.36694336 4.06420898 C239.00152251 0.05769312 250.1713794 0.42337763 261.39428711 0.40698242 C264.93770244 0.39060601 268.4753075 0.30478381 272.01757812 0.21679688 C290.934187 -0.01001217 290.934187 -0.01001217 297.234375 5.56640625 C299.27075195 7.9699707 299.27075195 7.9699707 300.74609375 10.203125 C301.40609375 11.193125 302.06609375 12.183125 302.74609375 13.203125 C302.97609025 15.85670266 303.09530602 18.41369247 303.125 21.0703125 C303.14163193 21.85377548 303.15826385 22.63723846 303.17539978 23.44444275 C303.21009434 25.1212982 303.24052059 26.79824637 303.26708984 28.47525024 C303.32239071 31.94338736 303.39884029 35.41094153 303.474823 38.87867737 C303.51237018 40.59434412 303.54893398 42.31003268 303.58450317 44.02574158 C303.72472099 50.6929079 303.93536409 57.35401727 304.24609375 64.015625 C304.28162354 64.86044434 304.31715332 65.70526367 304.35375977 66.57568359 C304.21672925 70.19263227 304.21672925 70.19263227 305.74609375 73.203125 C305.82136432 74.87864787 305.82922775 76.5572892 305.80859375 78.234375 C305.80085938 79.27335937 305.793125 80.31234375 305.78515625 81.3828125 C305.75948218 83.56510852 305.73345119 85.74740038 305.70703125 87.9296875 C305.66669034 93.40260488 305.80225389 98.7088298 306.49267578 104.13867188 C307.63116113 113.41326925 308.28746904 121.97521196 302.3515625 129.69921875 C300.74609375 131.203125 300.74609375 131.203125 297.74609375 132.203125 C297.74609375 132.863125 297.74609375 133.523125 297.74609375 134.203125 C292.78325341 136.57425983 288.28659488 138.63486847 282.74609375 139.203125 C282.74609375 139.863125 282.74609375 140.523125 282.74609375 141.203125 C275.26300032 143.28912007 268.03957612 143.51150413 260.31689453 143.46386719 C258.25002714 143.4531454 256.18402859 143.4638133 254.1171875 143.4765625 C247.02488722 143.48295734 240.61668162 142.99174911 233.74609375 141.203125 C232.42609375 141.203125 231.10609375 141.203125 229.74609375 141.203125 C230.37515625 142.05132813 231.00421875 142.89953125 231.65234375 143.7734375 C240.53039637 155.88225044 247.78746043 168.37389814 253.74609375 182.203125 C254.08769531 182.98816406 254.42929688 183.77320312 254.78125 184.58203125 C256.41444752 188.58526425 257.06998059 191.88463378 256.74609375 196.203125 C256.00359375 196.47125 255.26109375 196.739375 254.49609375 197.015625 C251.87562894 198.14718935 250.00259485 199.49129658 247.74609375 201.203125 C247.08609375 201.203125 246.42609375 201.203125 245.74609375 201.203125 C245.74609375 201.863125 245.74609375 202.523125 245.74609375 203.203125 C243.99887701 204.41565836 242.19661501 205.54953582 240.37109375 206.640625 C235.95723698 209.26585444 235.95723698 209.26585444 232.74609375 213.203125 C230.86328125 214.34375 230.86328125 214.34375 228.62109375 215.453125 C224.33638043 217.71987657 220.98358599 220.42689777 217.47265625 223.75 C215.74609375 225.203125 215.74609375 225.203125 212.74609375 226.203125 C212.27945312 226.8321875 211.8128125 227.46125 211.33203125 228.109375 C209.53398685 230.4831479 208.01082848 231.36974363 205.37109375 232.703125 C201.80749587 234.59074507 198.85846428 236.6221348 195.74609375 239.203125 C194.02741345 240.46750445 192.29717298 241.71625006 190.55859375 242.953125 C189.69878906 243.56671875 188.83898438 244.1803125 187.953125 244.8125 C185.74609375 246.203125 185.74609375 246.203125 183.74609375 246.203125 C183.74609375 246.863125 183.74609375 247.523125 183.74609375 248.203125 C182.65296875 248.80125 181.55984375 249.399375 180.43359375 250.015625 C178.30239732 251.22058717 176.73659245 252.2126263 174.99609375 253.953125 C174.58359375 254.365625 174.17109375 254.778125 173.74609375 255.203125 C172.75609375 255.203125 171.76609375 255.203125 170.74609375 255.203125 C171.20832355 252.10740172 172.02652527 249.35756864 173.19921875 246.47265625 C178.64584398 233.04314437 181.3663737 219.46641551 183.74609375 205.203125 C184.40609375 205.203125 185.06609375 205.203125 185.74609375 205.203125 C185.74609375 194.313125 185.74609375 183.423125 185.74609375 172.203125 C185.08609375 172.203125 184.42609375 172.203125 183.74609375 172.203125 C183.61332031 171.14351562 183.48054688 170.08390625 183.34375 168.9921875 C183.165555 167.60414221 182.98715915 166.21612269 182.80859375 164.828125 C182.67807617 163.78011719 182.67807617 163.78011719 182.54492188 162.7109375 C182.08291247 158.83528925 182.08291247 158.83528925 180.74609375 155.203125 C180.49944019 153.53895639 180.27410667 151.87161213 180.05859375 150.203125 C179.14892219 144.55358584 177.65363698 139.25051185 175.87109375 133.828125 C175.62657471 133.06757812 175.38205566 132.30703125 175.13012695 131.5234375 C173.55994366 126.88586006 171.55913953 123.24936459 168.74609375 119.203125 C168.00353596 117.51799386 167.31051016 115.80960842 166.68359375 114.078125 C165.71040981 111.39664822 164.89788397 109.39551453 163.125 107.1484375 C161.74609375 105.203125 161.74609375 105.203125 161.74609375 101.203125 C160.75609375 100.873125 159.76609375 100.543125 158.74609375 100.203125 C157.359375 98.35546875 157.359375 98.35546875 156.05859375 96.140625 C155.40310547 95.04041016 155.40310547 95.04041016 154.734375 93.91796875 C154.40824219 93.35207031 154.08210938 92.78617188 153.74609375 92.203125 C149.43410067 92.7595112 145.90582919 94.40832211 142.02734375 96.265625 C132.08202712 100.35274142 116.54061355 99.76797276 106.59375 96.06640625 C104.18642561 94.941631 101.93615874 93.70879468 99.74609375 92.203125 C99.08609375 91.873125 98.42609375 91.543125 97.74609375 91.203125 C97.49859375 91.925 97.25109375 92.646875 96.99609375 93.390625 C95.62339783 96.47919082 94.02256079 98.71323918 91.74609375 101.203125 C91.08609375 101.203125 90.42609375 101.203125 89.74609375 101.203125 C89.58367187 102.27240234 89.58367187 102.27240234 89.41796875 103.36328125 C88.68135551 106.47675698 87.51074639 108.82602563 85.99609375 111.640625 C82.57689066 118.29044204 80.15773587 125.1392371 77.74609375 132.203125 C76.76565888 134.87775133 75.75799963 137.54021479 74.74609375 140.203125 C74.08609375 140.203125 73.42609375 140.203125 72.74609375 140.203125 C72.69710937 140.95335937 72.648125 141.70359375 72.59765625 142.4765625 C72.10731531 149.18916085 71.24150449 155.64073999 69.74609375 162.203125 C69.08609375 162.203125 68.42609375 162.203125 67.74609375 162.203125 C67.6455648 168.38797516 67.57386016 174.57232729 67.52636719 180.7578125 C67.50652335 182.85229803 67.47943939 184.94673027 67.44433594 187.04101562 C67.22300919 200.60704338 68.07875675 213.10830819 71.38287354 226.2979126 C71.74609375 228.203125 71.74609375 228.203125 71.74609375 232.203125 C72.40609375 232.203125 73.06609375 232.203125 73.74609375 232.203125 C74.07222656 233.193125 74.39835937 234.183125 74.734375 235.203125 C76.95451068 241.91790966 79.18856022 248.60738063 81.74609375 255.203125 C78.04016669 254.6517534 75.65898153 253.74431176 72.63671875 251.54296875 C71.88632324 251.00019287 71.13592773 250.45741699 70.36279297 249.89819336 C69.58178223 249.3181958 68.80077148 248.73819824 67.99609375 248.140625 C67.19059082 247.55224854 66.38508789 246.96387207 65.55517578 246.35766602 C60.65978702 242.74388349 56.07838809 238.94767057 51.640625 234.78125 C48.63743352 232.27962246 45.26608245 230.87048807 41.74609375 229.203125 C41.08609375 228.213125 40.42609375 227.223125 39.74609375 226.203125 C38.08528697 225.52199133 36.41744652 224.85795487 34.74609375 224.203125 C32.6319409 222.80784072 30.59450989 221.39106892 28.55859375 219.890625 C27.9648999 219.45983643 27.37120605 219.02904785 26.75952148 218.58520508 C25.45860715 217.64092042 24.15927806 216.69444895 22.86132812 215.74609375 C19.80801854 213.51884114 16.74180568 211.30959514 13.67651367 209.09887695 C7.6559488 204.75555368 7.6559488 204.75555368 4.78491211 202.65283203 C3.43675997 201.69422499 2.06190421 200.77200944 0.66235352 199.89013672 C-4.1073418 196.82720588 -4.1073418 196.82720588 -4.859375 193.625 C-3.86835657 187.28989155 -2.26876365 181.882275 0.74609375 176.203125 C1.40609375 176.203125 2.06609375 176.203125 2.74609375 176.203125 C2.99359375 175.419375 3.24109375 174.635625 3.49609375 173.828125 C3.90859375 172.631875 4.32109375 171.435625 4.74609375 170.203125 C4.9678125 169.51089844 5.18953125 168.81867187 5.41796875 168.10546875 C8.93838851 158.15862236 15.43103082 149.56474664 21.74609375 141.203125 C20.74533813 141.30185913 20.74533813 141.30185913 19.72436523 141.40258789 C-29.84385094 146.14212766 -29.84385094 146.14212766 -45.19140625 134.890625 C-46.56553981 133.68382136 -47.92121008 132.45553826 -49.25390625 131.203125 C-50.18589844 130.45289063 -50.18589844 130.45289063 -51.13671875 129.6875 C-53.96293909 127.08474824 -55.12186654 125.15976568 -55.65234375 121.31640625 C-55.68726199 118.30994555 -55.59687768 115.34606491 -55.39355469 112.34667969 C-55.2386435 109.96884706 -55.13835185 107.59188127 -55.04296875 105.2109375 C-54.89992756 101.89238191 -54.75245924 98.57447312 -54.5703125 95.2578125 C-54.53365479 94.57187012 -54.49699707 93.88592773 -54.45922852 93.17919922 C-54.25390625 91.203125 -54.25390625 91.203125 -53.25390625 87.203125 C-304.05390625 87.203125 -554.85390625 87.203125 -813.25390625 87.203125 C-813.25390625 75.323125 -813.25390625 63.443125 -813.25390625 51.203125 C-561.46390625 51.203125 -309.67390625 51.203125 -50.25390625 51.203125 C-50.25390625 39.653125 -50.25390625 28.103125 -50.25390625 16.203125 C-47.65989497 7.12408552 -43.57629591 3.77853575 -35.50390625 -0.734375 C-24.57435356 -5.3314849 -10.87654138 -4.01682413 0 0 Z " fill="#D01619" transform="translate(1631.25390625,1905.796875)"/>
<path d="M0 0 C0.66 0 1.32 0 2 0 C2.27524517 33.06117965 1.63652325 65.97792043 0 99 C-0.33 99 -0.66 99 -1 99 C-2.485 107.415 -2.485 107.415 -4 116 C-4.66 116 -5.32 116 -6 116 C-6.92615284 112.85135624 -7.12877118 110.02274054 -7.1328125 106.74609375 C-7.13410156 105.72580078 -7.13539063 104.70550781 -7.13671875 103.65429688 C-7.13285156 102.59275391 -7.12898438 101.53121094 -7.125 100.4375 C-7.12886719 99.40302734 -7.13273437 98.36855469 -7.13671875 97.30273438 C-7.13542969 96.27341797 -7.13414062 95.24410156 -7.1328125 94.18359375 C-7.13112061 92.79998657 -7.13112061 92.79998657 -7.12939453 91.38842773 C-6.94581378 86.58103681 -6.43555796 81.79113751 -6 77 C-257.13 77 -508.26 77 -767 77 C-767 65.45 -767 53.9 -767 42 C-515.21 42 -263.42 42 -4 42 C-4 30.45 -4 18.9 -4 7 C-3.67 5.68 -3.34 4.36 -3 3 C-2.34 3 -1.68 3 -1 3 C-0.67 2.01 -0.34 1.02 0 0 Z " fill="#D10B0C" transform="translate(1585,1915)"/>
<path d="M0 0 C19.5765501 -0.04525002 39.15305746 -0.08204905 58.72964668 -0.10362434 C67.82059738 -0.11391102 76.91151314 -0.12792113 86.00244141 -0.15087891 C93.93154515 -0.17089302 101.86062358 -0.18373537 109.78975189 -0.18817699 C113.98319949 -0.19077086 118.17657468 -0.19681241 122.36999893 -0.21146011 C126.32785025 -0.22517118 130.28560024 -0.22919572 134.24347305 -0.22621536 C135.68567457 -0.22675954 137.12787996 -0.23065564 138.57006073 -0.23841095 C160.68916681 -0.35138623 180.98127657 3.72004991 197.6875 19.0625 C206.52888587 28.41091875 211.30151458 39.53620349 214 52 C214.17587646 52.81194824 214.35175293 53.62389648 214.53295898 54.46044922 C215.90107392 61.26513291 216.35182768 67.81709167 216.3125 74.75 C216.30686035 75.80348633 216.3012207 76.85697266 216.29541016 77.94238281 C216.16548937 86.32677599 215.25010921 93.89127311 213 102 C212.77473633 102.81549316 212.54947266 103.63098633 212.31738281 104.47119141 C207.57861019 121.42856403 207.57861019 121.42856403 204 128 C193.34893963 127.73128059 183.22799637 124.7279667 173 122 C174.0640541 118.65315141 175.14426017 115.73137761 176.8125 112.625 C181.35853421 103.75510619 184.75547832 92.99278611 185 83 C185.05027344 81.84886719 185.10054687 80.69773437 185.15234375 79.51171875 C185.49421436 65.90526836 182.71823898 52.51802934 173.375 42.0625 C163.68463497 36.14061026 154.63608167 33.85688321 143.31640625 33.90234375 C142.61603745 33.9037587 141.91566864 33.90517365 141.19407654 33.90663147 C138.98350534 33.91217523 136.77303996 33.92471674 134.5625 33.9375 C133.05273585 33.94252229 131.54297009 33.94708391 130.03320312 33.95117188 C126.35543507 33.96212613 122.67772788 33.9793511 119 34 C119.59530518 34.44150391 120.19061035 34.88300781 120.80395508 35.33789062 C134.01943257 45.33777647 141.57622215 58.47848467 144.375 74.75 C146.75690319 94.65590519 142.45183414 112.77842772 130.015625 128.6796875 C119.82549154 140.41018997 106.70841135 146.88865641 92 151 C90.81019531 151.36609375 89.62039062 151.7321875 88.39453125 152.109375 C67.65672961 157.16201205 44.02556933 152.93820675 25.85009766 142.20214844 C10.39000164 132.15655424 1.14679828 117.01057353 -3.26953125 99.36328125 C-5.76613148 86.38765011 -5.31113516 72.15623172 0 60 C0.43570313 58.97777344 0.87140625 57.95554687 1.3203125 56.90234375 C5.86244093 47.08588586 11.70777774 39.91018522 20 33 C13.4 32.67 6.8 32.34 0 32 C0 21.44 0 10.88 0 0 Z " fill="#FFFDFD" transform="translate(2419,1835)"/>
<path d="M0 0 C10.73415308 1.65812121 21.35978591 3.83091185 32 6 C31.566875 6.65484375 31.13375 7.3096875 30.6875 7.984375 C26.39051301 15.02665923 24.49174403 20.75640246 26 29 C28.09284458 34.77204624 31.75379455 38.00679313 36.9375 41.08984375 C42.13836611 43.38492292 47.65551988 43.20652879 53.23828125 43.31640625 C54.55943184 43.3475779 54.55943184 43.3475779 55.90727234 43.37937927 C58.70893879 43.44453937 61.51069557 43.50360321 64.3125 43.5625 C66.21680606 43.60571715 68.12110312 43.64933244 70.02539062 43.69335938 C74.68350268 43.80093233 79.34168747 43.90025481 84 44 C84 33.11 84 22.22 84 11 C92.58 11 101.16 11 110 11 C110 21.89 110 32.78 110 44 C147.95 44 185.9 44 225 44 C225 54.56 225 65.12 225 76 C187.05 76 149.1 76 110 76 C110 83.92 110 91.84 110 100 C101.42 100 92.84 100 84 100 C84 92.08 84 84.16 84 76 C80.81859375 76.03480469 77.6371875 76.06960938 74.359375 76.10546875 C71.24154556 76.12893653 68.12372637 76.14711192 65.00585938 76.16479492 C62.85672524 76.17978213 60.70762117 76.20017887 58.55859375 76.22631836 C39.31371333 76.45435946 21.80914919 75.30819559 7.0390625 61.34375 C-4.31090882 48.29780595 -5.97571117 33.1093584 -5.25292969 16.51318359 C-4.66099707 10.63156743 -2.47150178 5.33138242 0 0 Z " fill="#FFFEFE" transform="translate(2335,1619)"/>
<path d="M0 0 C10.44498219 7.16532908 16.66234046 20.41559045 19.05859375 32.58984375 C21.80605686 53.92376507 21.64832653 83.44409889 8.7890625 102.078125 C8.3559375 102.59117188 7.9228125 103.10421875 7.4765625 103.6328125 C3.86205813 103.0186015 0.75266089 102.02914984 -2.60546875 100.56640625 C-4.00249023 99.9621582 -4.00249023 99.9621582 -5.42773438 99.34570312 C-6.38744141 98.92482422 -7.34714844 98.50394531 -8.3359375 98.0703125 C-9.31498047 97.64556641 -10.29402344 97.22082031 -11.30273438 96.78320312 C-13.71156657 95.73741744 -16.11834553 94.68716466 -18.5234375 93.6328125 C-17.4593834 90.28596391 -16.37917733 87.36419011 -14.7109375 84.2578125 C-9.17554809 73.08259237 -7.05164103 63.04740423 -6.9609375 50.6328125 C-6.94643555 49.57070557 -6.93193359 48.50859863 -6.91699219 47.41430664 C-7.003492 40.73008612 -7.96666225 36.3236529 -11.5234375 30.6328125 C-14.49028196 28.06689297 -16.10588652 27.67009384 -20.0234375 27.3203125 C-23.40178512 27.62195068 -25.62181123 27.89183674 -28.5234375 29.6328125 C-29.23431787 31.28110596 -29.89526036 32.95126092 -30.5234375 34.6328125 C-31.30397021 36.19899238 -32.10001501 37.75752254 -32.91015625 39.30859375 C-35.46089691 44.35683736 -37.42512324 49.50423975 -39.3359375 54.8203125 C-45.62170445 71.72154253 -53.54609238 88.37450197 -69.2734375 98.3828125 C-80.36453254 102.64861828 -92.50177218 103.27072927 -103.5234375 98.6328125 C-115.59780611 92.54540204 -121.75429118 81.97434068 -125.92626953 69.57006836 C-132.7163711 47.54249029 -129.36899768 22.21164729 -119.5234375 1.6328125 C-110.40754854 4.28470747 -102.0460316 8.5133956 -93.5234375 12.6328125 C-93.5234375 16.69906459 -95.29376886 19.16516565 -97.234375 22.671875 C-100.47727497 30.12071795 -100.88738999 37.6582468 -100.8984375 45.6953125 C-100.92292969 46.63697266 -100.94742188 47.57863281 -100.97265625 48.54882812 C-100.99817433 54.66040735 -100.23146019 59.62110234 -96.5234375 64.6328125 C-92.46140327 67.34083532 -89.28561456 67.14605066 -84.5234375 66.6328125 C-79.22277422 64.70529858 -76.90428274 60.50110798 -74.5234375 55.6328125 C-73.25776366 52.45628845 -72.05963166 49.26742599 -70.89477539 46.05322266 C-64.0987388 27.33987356 -56.24560761 6.30430003 -37.5234375 -3.3671875 C-25.64013096 -8.18025858 -11.04434536 -5.98377845 0 0 Z " fill="#FFFCFC" transform="translate(2543.5234375,1391.3671875)"/>
<path d="M0 0 C8.91 0 17.82 0 27 0 C27 10.89 27 21.78 27 33 C64.95 33 102.9 33 142 33 C142 44.22 142 55.44 142 67 C104.05 67 66.1 67 27 67 C27 75.25 27 83.5 27 92 C18.09 92 9.18 92 0 92 C0 83.42 0 74.84 0 66 C-19.14 66 -38.28 66 -58 66 C-59.48752766 62.28118085 -60.48613557 59.25086679 -61.2890625 55.40234375 C-61.50820312 54.35369141 -61.72734375 53.30503906 -61.953125 52.22460938 C-62.17484375 51.13986328 -62.3965625 50.05511719 -62.625 48.9375 C-62.85445312 47.84888672 -63.08390625 46.76027344 -63.3203125 45.63867188 C-64.21513146 41.3110504 -65 37.43522397 -65 33 C-43.55 33 -22.1 33 0 33 C0 22.11 0 11.22 0 0 Z " fill="#FFFCFC" transform="translate(2419,1518)"/>
<path d="M0 0 C11.41045618 7.81746902 17.22848024 20.44480416 19.796875 33.71484375 C21.93887459 50.29254346 22.10877845 66.7606893 16.796875 82.71484375 C16.508125 83.65457031 16.219375 84.59429688 15.921875 85.5625 C12.58465924 95.20169016 6.34032781 102.70376865 -2.64453125 107.53125 C-13.04390236 112.34195144 -23.42705156 113.43179716 -34.515625 110.08984375 C-45.3314939 106.01079726 -53.95507643 97.87381642 -59.015625 87.46484375 C-63.23834902 76.98815127 -64.72068783 66.7093849 -64.578125 55.46484375 C-64.56724854 54.28897705 -64.55637207 53.11311035 -64.54516602 51.90161133 C-64.22178674 34.11819169 -61.52404352 18.34771193 -49.203125 4.71484375 C-35.21041031 -7.16576306 -15.89098781 -9.26974289 0 0 Z " fill="#FDFDFD" transform="translate(619.203125,1663.28515625)"/>
<path d="M0 0 C10.97241744 8.38393483 17.0632999 20.85133282 19.18359375 34.43115234 C21.87547412 56.26366756 20.85472961 79.10603216 7.42578125 97.3984375 C0.48328278 105.35265685 -10.6682126 109.89969287 -20.98828125 110.6328125 C-33.00659297 110.82770404 -42.1390554 107.84291082 -51.0703125 99.6484375 C-58.84123354 91.4579203 -61.83462419 81.25001776 -64.12890625 70.4296875 C-64.30164062 69.66946289 -64.474375 68.90923828 -64.65234375 68.12597656 C-68.29756915 47.50206813 -65.36012648 25.16535641 -54.12890625 7.4296875 C-48.77736163 0.13411239 -41.43871109 -3.96733619 -32.71484375 -6.18359375 C-21.02042269 -7.93245732 -9.87696017 -6.71712784 0 0 Z " fill="#FDFDFD" transform="translate(2118.12890625,1664.5703125)"/>
<path d="M0 0 C12.22674752 9.72582189 17.97896091 22.78332197 19.75 38.1875 C21.26750518 59.70611424 20.54916068 82.46984938 6.328125 99.93359375 C-0.50104017 107.49445519 -9.30392068 110.64358365 -19.29296875 111.42578125 C-30.7275056 111.69566473 -40.45740137 108.68364741 -49.25 101.1875 C-61.81670393 87.77472096 -64.60149089 71.8152044 -64.625 54 C-64.62661133 52.83694336 -64.62822266 51.67388672 -64.62988281 50.47558594 C-64.41320235 33.4348713 -61.83898616 16.69160451 -49.30078125 4.25390625 C-35.1843513 -8.67943243 -16.2140114 -9.04242943 0 0 Z " fill="#FDFDFD" transform="translate(990.25,1663.8125)"/>
<path d="M0 0 C13.10947702 10.77890332 17.87811908 24.89748679 19.8125 41.3125 C21.41310479 62.23156218 19.81207852 83.36795702 6.0625 100.25 C-1.60028986 108.32225192 -11.60341813 111.28814621 -22.4375 111.6875 C-32.74836573 111.49633679 -41.61064255 108.34697937 -49.1875 101.3125 C-49.79207031 100.76078125 -50.39664062 100.2090625 -51.01953125 99.640625 C-63.52720482 86.88770293 -64.58522305 68.91474088 -64.5625 52.0625 C-64.56195618 51.38062622 -64.56141235 50.69875244 -64.56085205 49.99621582 C-64.49794607 32.83647057 -62.04909572 17.54089159 -50 4.4375 C-35.99864546 -8.80445904 -16.20086951 -8.57693091 0 0 Z " fill="#FDFDFD" transform="translate(1739.1875,1663.6875)"/>
<path d="M0 0 C5.6167342 4.05757387 9.14562317 8.57392723 12.6484375 14.5 C13.6384375 15.985 13.6384375 15.985 14.6484375 17.5 C18.40445623 27.93932608 18.60634976 41.97051846 14.5859375 52.3125 C8.7089347 63.90142126 0.03630603 69.86908004 -12.08129883 73.9597168 C-26.76506748 78.30614104 -43.56847312 76.21294582 -56.96484375 69.0078125 C-64.14340734 64.47274614 -69.32254527 59.47029282 -72.3515625 51.5 C-72.79628906 50.53900391 -72.79628906 50.53900391 -73.25 49.55859375 C-77.10429585 40.24109875 -76.63091323 29.04180178 -73.4140625 19.625 C-68.09380993 7.42328113 -58.12190961 -0.31016137 -46.2109375 -5.41796875 C-31.57068062 -10.72132711 -12.99640382 -8.2900649 0 0 Z " fill="#FF0101" transform="translate(2518.3515625,1877.5)"/>
<path d="M0 0 C1.98 0.99 1.98 0.99 4 2 C4 2.66 4 3.32 4 4 C6.475 4.99 6.475 4.99 9 6 C9 6.66 9 7.32 9 8 C9.556875 8.10183594 10.11375 8.20367188 10.6875 8.30859375 C13.49084172 9.14675504 15.53164216 10.48748679 18 12.0625 C23.57449406 15.38932506 29.28243821 17.91759359 35.3125 20.3125 C36.16005859 20.64967041 37.00761719 20.98684082 37.88085938 21.33422852 C44.36069028 23.85720752 50.38060805 25.95594148 57.375 26.25 C61.26977149 26.94701512 62.70542673 27.67414036 65.390625 30.64453125 C67.89109569 34.2632215 69.93591647 38.12227145 72 42 C72.80356017 43.42975353 73.60958632 44.85812368 74.41796875 46.28515625 C78.50056666 53.61486284 81.97054328 60.78851786 84.34375 68.875 C84.80744548 70.96310364 84.80744548 70.96310364 86 72 C86.04080783 73.99958364 86.04254356 76.00045254 86 78 C85.2575 78.268125 84.515 78.53625 83.75 78.8125 C81.12953519 79.94406435 79.2565011 81.28817158 77 83 C76.34 83 75.68 83 75 83 C75 83.66 75 84.32 75 85 C73.25278326 86.21253336 71.45052126 87.34641082 69.625 88.4375 C65.21114323 91.06272944 65.21114323 91.06272944 62 95 C60.1171875 96.140625 60.1171875 96.140625 57.875 97.25 C53.59028668 99.51675157 50.23749224 102.22377277 46.7265625 105.546875 C45 107 45 107 42 108 C41.53335937 108.6290625 41.06671875 109.258125 40.5859375 109.90625 C38.7878931 112.2800229 37.26473473 113.16661863 34.625 114.5 C31.06140212 116.38762007 28.11237053 118.4190098 25 121 C23.2813197 122.26437945 21.55107923 123.51312506 19.8125 124.75 C18.95269531 125.36359375 18.09289063 125.9771875 17.20703125 126.609375 C15 128 15 128 13 128 C13 128.66 13 129.32 13 130 C11.906875 130.598125 10.81375 131.19625 9.6875 131.8125 C7.55630357 133.01746217 5.9904987 134.0095013 4.25 135.75 C3.63125 136.36875 3.63125 136.36875 3 137 C2.01 137 1.02 137 0 137 C0.4622298 133.90427672 1.28043152 131.15444364 2.453125 128.26953125 C7.89975023 114.84001937 10.62027995 101.26329051 13 87 C13.66 87 14.32 87 15 87 C15 76.11 15 65.22 15 54 C14.34 54 13.68 54 13 54 C12.86722656 52.94039062 12.73445313 51.88078125 12.59765625 50.7890625 C12.41946125 49.40101721 12.2410654 48.01299769 12.0625 46.625 C11.93198242 45.57699219 11.93198242 45.57699219 11.79882812 44.5078125 C11.33681872 40.63216425 11.33681872 40.63216425 10 37 C9.75334644 35.33583139 9.52801292 33.66848713 9.3125 32 C8.40418945 26.28665729 6.83872692 20.96705237 5 15.5 C4.60808472 14.33404297 4.60808472 14.33404297 4.20825195 13.14453125 C2.77383663 8.95361038 2.77383663 8.95361038 0.91015625 4.94335938 C0 3 0 3 0 0 Z " fill="#D91A1D" transform="translate(1802,2024)"/>
<path d="M0 0 C46.86 0 93.72 0 142 0 C142 11.55 142 23.1 142 35 C95.14 35 48.28 35 0 35 C0 23.45 0 11.9 0 0 Z " fill="#FFFAFA" transform="translate(2419,1755)"/>
<path d="M0 0 C2.77999513 1.26151039 4.96096548 0.50247944 7.859375 -0.15625 C7.529375 1.49375 7.199375 3.14375 6.859375 4.84375 C6.199375 4.84375 5.539375 4.84375 4.859375 4.84375 C4.85526611 5.96869873 4.85115723 7.09364746 4.84692383 8.25268555 C4.82510822 12.43706725 4.77079403 16.62051185 4.70678711 20.80444336 C4.68362815 22.61327108 4.66921631 24.42223325 4.66381836 26.23120117 C4.65451304 28.83597383 4.61349145 31.43863824 4.56640625 34.04296875 C4.57230522 35.25106453 4.57230522 35.25106453 4.57832336 36.48356628 C4.46796967 40.75550741 4.24153706 42.37161261 1.45776367 45.81079102 C-0.8922408 47.64941614 -2.89798587 48.95420276 -5.640625 50.09375 C-6.73890625 50.56554688 -6.73890625 50.56554688 -7.859375 51.046875 C-18.70706864 54.83613785 -34.70898464 54.69567575 -45.140625 49.84375 C-48.00341494 48.35271357 -49.87157082 47.11280418 -52.140625 44.84375 C-52.26000977 42.87597656 -52.26000977 42.87597656 -52.08203125 40.484375 C-52.02595703 39.61554688 -51.96988281 38.74671875 -51.91210938 37.8515625 C-51.84314453 36.94148438 -51.77417969 36.03140625 -51.703125 35.09375 C-51.29272842 29.45384457 -51.04679283 24.42685171 -52.140625 18.84375 C-52.35377003 15.39621379 -52.52990887 11.95338145 -52.65820312 8.50195312 C-52.84268755 4.80182203 -53.03901218 2.99616923 -55.140625 -0.15625 C-53.8103125 -0.28 -53.8103125 -0.28 -52.453125 -0.40625 C-48.8986075 -0.87877514 -45.81570553 -1.99244808 -42.453125 -3.21875 C-28.86985958 -7.49583358 -12.65221023 -6.83404056 0 0 Z " fill="#DD2326" transform="translate(1781.140625,1951.15625)"/>
<path d="M0 0 C0 0.33 0 0.66 0 1 C-1.21623047 1.05607422 -1.21623047 1.05607422 -2.45703125 1.11328125 C-11.11756338 1.62746884 -18.79621086 3.26540362 -27 6 C-28.28742395 9.23169686 -28.18431801 12.65163306 -28.28125 16.09375 C-28.33732422 17.888125 -28.33732422 17.888125 -28.39453125 19.71875 C-28.44673828 21.59046875 -28.44673828 21.59046875 -28.5 23.5 C-28.72751956 31.45475811 -29.04796739 39.36122936 -29.75927734 47.28857422 C-30.09998259 51.12617306 -30.34635099 54.96611073 -30.5625 58.8125 C-30.60568359 59.57530273 -30.64886719 60.33810547 -30.69335938 61.12402344 C-31.0055684 67.08325125 -31.05281333 73.01691018 -30.9375 78.984375 C-30.93377401 82.44675333 -31.20024922 85.86908302 -31.46875 89.3203125 C-32.17634334 98.70838184 -32.34642342 108.10353633 -32.55224609 117.51367188 C-32.60398423 119.8243254 -32.66111409 122.13479972 -32.71875 124.4453125 C-32.73232544 125.14633087 -32.74590088 125.84734924 -32.7598877 126.5696106 C-32.84339579 129.84267519 -33.01027228 132.8655283 -34 136 C-30.67948046 137.73572613 -27.66453261 139.2226749 -24 140 C-21.6652039 140.66152556 -19.33163378 141.32741333 -17 142 C-17 142.66 -17 143.32 -17 144 C-15.68 144.33 -14.36 144.66 -13 145 C-23.89323212 143.9913674 -31.8009186 141.4494511 -40 134 C-40.62519531 133.49855469 -41.25039062 132.99710938 -41.89453125 132.48046875 C-44.71057469 129.8754637 -45.86870924 127.95121444 -46.3984375 124.11328125 C-46.43335574 121.10682055 -46.34297143 118.14293991 -46.13964844 115.14355469 C-45.98473725 112.76572206 -45.8844456 110.38875627 -45.7890625 108.0078125 C-45.64602131 104.68925691 -45.49855299 101.37134812 -45.31640625 98.0546875 C-45.27974854 97.36874512 -45.24309082 96.68280273 -45.20532227 95.97607422 C-45 94 -45 94 -44 90 C-294.8 90 -545.6 90 -804 90 C-804 89.67 -804 89.34 -804 89 C-552.87 89 -301.74 89 -43 89 C-43 101.87 -43 114.74 -43 128 C-42.34 128 -41.68 128 -41 128 C-40.34 118.76 -39.68 109.52 -39 100 C-38.67 100 -38.34 100 -38 100 C-37.3263706 92.46090979 -36.78336913 84.93882569 -36.5 77.375 C-36.44017944 75.81773193 -36.44017944 75.81773193 -36.37915039 74.22900391 C-35.64590081 53.49504988 -35.37597695 32.74283386 -35 12 C-35.45375 12.495 -35.9075 12.99 -36.375 13.5 C-38 15 -38 15 -40 15 C-36.8672967 8.03010988 -30.3705991 3.90896772 -23.53125 0.90234375 C-15.88855174 -1.05060238 -7.82335842 -0.34481012 0 0 Z " fill="#D89799" transform="translate(1622,1903)"/>
<path d="M0 0 C5.84977204 3.31225096 10.47282577 8.77785232 12.59765625 15.15234375 C13.33565123 22.53229359 12.78027194 28.88451732 8.59765625 35.15234375 C4.59746229 39.47737945 0.40069599 42.78930996 -5.5390625 43.55859375 C-12.67952137 43.74712072 -17.87050497 43.54927351 -23.55859375 38.96484375 C-28.96373783 33.65131228 -30.69767996 29.80976178 -30.90234375 22.08984375 C-30.60451375 14.34626376 -29.02394667 8.77394667 -23.40234375 3.15234375 C-16.77355738 -1.86846969 -7.80055825 -2.7523921 0 0 Z " fill="#FFFCFC" transform="translate(2379.40234375,1751.84765625)"/>
<path d="M0 0 C3.45060759 -0.42745408 4.72688457 -0.19531643 7.60546875 1.86328125 C8.45753906 2.67152344 9.30960938 3.47976563 10.1875 4.3125 C11.04730469 5.11300781 11.90710937 5.91351562 12.79296875 6.73828125 C16.9787859 11.02781776 17.31486165 14.13733303 17.37890625 19.8671875 C17.39553818 20.65065048 17.4121701 21.43411346 17.42930603 22.24131775 C17.46400059 23.9181732 17.49442684 25.59512137 17.52099609 27.27212524 C17.57629696 30.74026236 17.65274654 34.20781653 17.72872925 37.67555237 C17.76627643 39.39121912 17.80284023 41.10690768 17.83840942 42.82261658 C17.97862724 49.4897829 18.18927034 56.15089227 18.5 62.8125 C18.53552979 63.65731934 18.57105957 64.50213867 18.60766602 65.37255859 C18.4706355 68.98950727 18.4706355 68.98950727 20 72 C20.07527057 73.67552287 20.083134 75.3541642 20.0625 77.03125 C20.05476563 78.07023437 20.04703125 79.10921875 20.0390625 80.1796875 C20.01338843 82.36198352 19.98735744 84.54427538 19.9609375 86.7265625 C19.92059659 92.19947988 20.05616014 97.5057048 20.74658203 102.93554688 C21.88506738 112.21014425 22.54137529 120.77208696 16.60546875 128.49609375 C15 130 15 130 12 131 C12 131.66 12 132.32 12 133 C7.03715966 135.37113483 2.54050113 137.43174347 -3 138 C-3 138.66 -3 139.32 -3 140 C-10.48309343 142.08599507 -17.70651763 142.30837913 -25.42919922 142.26074219 C-27.49606661 142.2500204 -29.56206516 142.2606883 -31.62890625 142.2734375 C-38.69346184 142.27980426 -45.17329422 141.90301975 -52 140 C-52 139.67 -52 139.34 -52 139 C-51.37134033 139.03029297 -50.74268066 139.06058594 -50.0949707 139.09179688 C-24.00308372 141.02974105 -24.00308372 141.02974105 1 135 C2.051875 134.55720703 2.051875 134.55720703 3.125 134.10546875 C5.44610552 133.12383454 7.74546237 132.12726881 10 131 C9.67 130.01 9.34 129.02 9 128 C8.85939857 126.567029 8.76573909 125.1291534 8.70288086 123.69067383 C8.66291489 122.8215889 8.62294891 121.95250397 8.58177185 121.05708313 C8.52389244 119.64630745 8.52389244 119.64630745 8.46484375 118.20703125 C8.42186661 117.2282048 8.37888947 116.24937836 8.33460999 115.2408905 C8.24432618 113.16043974 8.15620639 111.07989412 8.07006836 108.99926758 C7.93987841 105.86967384 7.80156442 102.74052104 7.66210938 99.61132812 C7.27833716 90.74105112 6.9319933 81.89137837 7.00390625 73.01171875 C7.05123343 67.46809022 7.05123343 67.46809022 6.53515625 61.9609375 C5.76055511 56.22775826 5.66331973 50.47788241 5.49731445 44.70117188 C5.4378334 42.63657227 5.37271905 40.57221044 5.30664062 38.5078125 C5.13113137 32.8450093 4.97522767 27.1894464 5.0234375 21.5234375 C5.0424538 17.28059128 4.71827489 13.2116772 4.1875 9 C4.03667969 7.72125 3.88585938 6.4425 3.73046875 5.125 C3.30826204 1.71154244 3.30826204 1.71154244 0 0 Z " fill="#CA2425" transform="translate(1917,1907)"/>
<path d="M0 0 C2.0625 -0.375 2.0625 -0.375 5 0 C7.53572282 1.79177109 9.77174488 3.84238121 12 6 C11.34 6.66 10.68 7.32 10 8 C9.70363381 11.02461826 9.70363381 11.02461826 9.76953125 14.60546875 C9.76953629 15.27249313 9.76954132 15.93951752 9.76954651 16.62675476 C9.77306857 18.8138601 9.79203073 21.00049211 9.8125 23.1875 C9.8207049 24.70393758 9.8286787 26.22037642 9.83642578 27.73681641 C9.93066185 41.89720453 10.30309642 56.03072836 11.51171875 70.14453125 C13.12166609 89.12730001 13.21003384 107.96608702 13 127 C14.98 127.495 14.98 127.495 17 128 C15.625 129.5 15.625 129.5 14 131 C13.34 131 12.68 131 12 131 C12 131.66 12 132.32 12 133 C7.03715966 135.37113483 2.54050113 137.43174347 -3 138 C-3 138.66 -3 139.32 -3 140 C-10.48309343 142.08599507 -17.70651763 142.30837913 -25.42919922 142.26074219 C-27.49606661 142.2500204 -29.56206516 142.2606883 -31.62890625 142.2734375 C-38.69346184 142.27980426 -45.17329422 141.90301975 -52 140 C-52 139.67 -52 139.34 -52 139 C-51.37134033 139.03029297 -50.74268066 139.06058594 -50.0949707 139.09179688 C-24.00308372 141.02974105 -24.00308372 141.02974105 1 135 C2.051875 134.55720703 2.051875 134.55720703 3.125 134.10546875 C5.44610552 133.12383454 7.74546237 132.12726881 10 131 C9.67 130.01 9.34 129.02 9 128 C8.85939857 126.567029 8.76573909 125.1291534 8.70288086 123.69067383 C8.66291489 122.8215889 8.62294891 121.95250397 8.58177185 121.05708313 C8.52389244 119.64630745 8.52389244 119.64630745 8.46484375 118.20703125 C8.42186661 117.2282048 8.37888947 116.24937836 8.33460999 115.2408905 C8.24432618 113.16043974 8.15620639 111.07989412 8.07006836 108.99926758 C7.93987841 105.86967384 7.80156442 102.74052104 7.66210938 99.61132812 C7.27833716 90.74105112 6.9319933 81.89137837 7.00390625 73.01171875 C7.05123343 67.46809022 7.05123343 67.46809022 6.53515625 61.9609375 C5.76055511 56.22775826 5.66331973 50.47788241 5.49731445 44.70117188 C5.4378334 42.63657227 5.37271905 40.57221044 5.30664062 38.5078125 C5.13113137 32.8450093 4.97522767 27.1894464 5.0234375 21.5234375 C5.0424538 17.28059128 4.71827489 13.2116772 4.1875 9 C4.03667969 7.72125 3.88585938 6.4425 3.73046875 5.125 C3.30826204 1.71154244 3.30826204 1.71154244 0 0 Z " fill="#E0464D" transform="translate(1917,1907)"/>
<path d="M0 0 C0.67482422 0.51046875 0.67482422 0.51046875 1.36328125 1.03125 C3.57043818 2.69435823 5.7853375 4.3469001 8 6 C8.84433594 6.63808594 9.68867187 7.27617188 10.55859375 7.93359375 C26.15652058 19.5471445 42.63378242 26.0035514 61 32 C61 34.31 61 36.62 61 39 C55.73288923 38.40411101 51.04746285 37.22108918 46.0625 35.4375 C45.3317627 35.17791504 44.60102539 34.91833008 43.84814453 34.65087891 C33.38754239 30.81210522 23.62700957 25.56832173 14 20 C14 19.34 14 18.68 14 18 C11.525 17.01 11.525 17.01 9 16 C9 15.34 9 14.68 9 14 C7.83404297 13.6596875 7.83404297 13.6596875 6.64453125 13.3125 C3.32092964 11.66297246 2.90295745 10.44129518 1.6875 7 C1.36136719 6.113125 1.03523438 5.22625 0.69921875 4.3125 C0 2 0 2 0 0 Z " fill="#A00606" transform="translate(1797,2012)"/>
<path d="M0 0 C0.23243154 3.6607967 0.26530891 5.62925805 -1 9 C-4.54076783 12.65776711 -8.68601205 15.34022128 -13 18 C-13.58104492 18.36013184 -14.16208984 18.72026367 -14.76074219 19.09130859 C-18.76832058 21.5391508 -22.85045007 23.80175535 -27 26 C-27.86753906 26.46148438 -28.73507812 26.92296875 -29.62890625 27.3984375 C-35.71936835 30.39124673 -42.08896547 32.39325908 -48.5625 34.375 C-49.45662598 34.65037598 -50.35075195 34.92575195 -51.27197266 35.20947266 C-52.11163574 35.45745605 -52.95129883 35.70543945 -53.81640625 35.9609375 C-54.57381104 36.18571777 -55.33121582 36.41049805 -56.11157227 36.64208984 C-58 37 -58 37 -60 36 C-59.67 34.68 -59.34 33.36 -59 32 C-58.34 32 -57.68 32 -57 32 C-56.98324219 31.38898438 -56.96648437 30.77796875 -56.94921875 30.1484375 C-56 28 -56 28 -52.89453125 26.7265625 C-51.53759718 26.34577552 -50.17652786 25.97953743 -48.8125 25.625 C-47.33954821 25.20082145 -45.86820581 24.77101857 -44.3984375 24.3359375 C-43.6569043 24.11647461 -42.91537109 23.89701172 -42.15136719 23.67089844 C-27.67443348 19.15630313 -14.288936 11.19508938 -2.7578125 1.43359375 C-1 0 -1 0 0 0 Z " fill="#A10506" transform="translate(1714,2015)"/>
<path d="M0 0 C0.15413481 27.47393664 0.06033537 54.86846244 -2.2668457 82.26660156 C-3.05729014 91.840832 -3.4058171 101.4138552 -3.65820312 111.01611328 C-3.68978516 112.13228027 -3.72136719 113.24844727 -3.75390625 114.3984375 C-3.77783447 115.38505371 -3.8017627 116.37166992 -3.82641602 117.38818359 C-3.98195343 119.72846377 -4.34100375 121.75642486 -5 124 C-8.95584836 122.68138388 -11.40393818 121.29310168 -14 118 C-14.42578125 114.828125 -14.42578125 114.828125 -14.3125 111.25 C-14.27769531 110.01507812 -14.24289062 108.78015625 -14.20703125 107.5078125 C-13.97766496 103.62156865 -13.61487184 99.84294898 -13 96 C-12.67 96 -12.34 96 -12 96 C-11.67 103.59 -11.34 111.18 -11 119 C-10.34 119 -9.68 119 -9 119 C-8.34 109.76 -7.68 100.52 -7 91 C-6.67 91 -6.34 91 -6 91 C-5.3263706 83.46090979 -4.78336913 75.93882569 -4.5 68.375 C-4.46011963 67.33682129 -4.42023926 66.29864258 -4.37915039 65.22900391 C-3.64590081 44.49504988 -3.37597695 23.74283386 -3 3 C-3.45375 3.495 -3.9075 3.99 -4.375 4.5 C-6 6 -6 6 -8 6 C-6.98565881 3.46414701 -6.34981128 2.21863205 -4 0.75 C-2 0 -2 0 0 0 Z " fill="#DE363C" transform="translate(1590,1912)"/>
<path d="M0 0 C2.0625 0.4375 2.0625 0.4375 4 1 C3.01 1.495 3.01 1.495 2 2 C1.89811942 17.90434293 1.88469748 33.79049393 2.4375 49.6875 C2.47673584 50.83565186 2.51597168 51.98380371 2.55639648 53.16674805 C2.76198697 58.57326496 3.05821103 63.95548835 3.50390625 69.34765625 C4.16189774 77.4845519 4.34336418 85.63241956 4.55224609 93.79052734 C4.74743055 101.24872242 5.0220667 108.60030473 6 116 C6.99 116 7.98 116 9 116 C8.34 117.32 7.68 118.64 7 120 C5.68 120 4.36 120 3 120 C2.98018066 119.05084717 2.96036133 118.10169434 2.93994141 117.1237793 C2.43411429 93.38469675 2.43411429 93.38469675 1 69.6875 C-0.42952316 51.82241674 -1.08798227 34.04398284 -1.125 16.125 C-1.12767883 15.37829041 -1.13035767 14.63158081 -1.13311768 13.86224365 C-1.13890813 11.74404889 -1.13728032 9.62600774 -1.1328125 7.5078125 C-1.13168457 6.27691895 -1.13055664 5.04602539 -1.12939453 3.77783203 C-1 1 -1 1 0 0 Z " fill="#D73236" transform="translate(1927,1914)"/>
<path d="M0 0 C4.11996334 4.11996334 4.24830831 9.95843674 4.27734375 15.51025391 C4.26832031 16.26999512 4.25929688 17.02973633 4.25 17.8125 C4.24613281 18.60060059 4.24226563 19.38870117 4.23828125 20.20068359 C4.15291712 25.96394768 3.56686569 31.43203086 2 37 C1.01 37 0.02 37 -1 37 C-2.95789437 31.26616648 -3.30461618 26.16008829 -3.25 20.125 C-3.25773437 19.27808594 -3.26546875 18.43117188 -3.2734375 17.55859375 C-3.22955069 3.22955069 -3.22955069 3.22955069 0 0 Z " fill="#FF1515" transform="translate(2095,1697)"/>
<path d="M0 0 C0.33 0 0.66 0 1 0 C1.28950409 5.84898363 1.57410875 11.69817947 1.85449219 17.54760742 C1.9502043 19.53074317 2.04717414 21.51381869 2.14550781 23.49682617 C2.71540479 35.00816363 3.16259115 46.47296508 3 58 C3.99 58.33 4.98 58.66 6 59 C5.34 59 4.68 59 4 59 C4 59.66 4 60.32 4 61 C-0.96284034 63.37113483 -5.45949887 65.43174347 -11 66 C-11 66.66 -11 67.32 -11 68 C-18.48309343 70.08599507 -25.70651763 70.30837913 -33.42919922 70.26074219 C-35.49606661 70.2500204 -37.56206516 70.2606883 -39.62890625 70.2734375 C-46.69346184 70.27980426 -53.17329422 69.90301975 -60 68 C-60 67.67 -60 67.34 -60 67 C-59.37134033 67.03029297 -58.74268066 67.06058594 -58.0949707 67.09179688 C-32.00308372 69.02974105 -32.00308372 69.02974105 -7 63 C-5.948125 62.55720703 -5.948125 62.55720703 -4.875 62.10546875 C-2.55389448 61.12383454 -0.25453763 60.12726881 2 59 C1.67 58.01 1.34 57.02 1 56 C0.85903539 54.52464639 0.76560058 53.04446563 0.70288086 51.5637207 C0.66291489 50.66881424 0.62294891 49.77390778 0.58177185 48.85188293 C0.54318558 47.88626938 0.5045993 46.92065582 0.46484375 45.92578125 C0.42186661 44.92798141 0.37888947 43.93018158 0.33460999 42.90214539 C0.24439139 40.78812107 0.15626691 38.6740065 0.07006836 36.55981445 C-0.06127949 33.34239695 -0.19900348 30.12530308 -0.33789062 26.90820312 C-0.42485716 24.85157845 -0.51145736 22.79493824 -0.59765625 20.73828125 C-0.63826675 19.78278885 -0.67887726 18.82729645 -0.72071838 17.84284973 C-1.33415095 2.66830189 -1.33415095 2.66830189 0 0 Z " fill="#D9686E" transform="translate(1925,1979)"/>
<path d="M0 0 C0.33 0.99 0.66 1.98 1 3 C1.66 3 2.32 3 3 3 C9.01854714 34.96290572 9.01854714 34.96290572 4 45 C3.01 45 2.02 45 1 45 C0.20178184 42.18806199 -0.12253632 39.70176715 -0.11352539 36.78222656 C-0.11344986 35.96167786 -0.11337433 35.14112915 -0.11329651 34.29571533 C-0.10813522 33.41953552 -0.10297394 32.54335571 -0.09765625 31.640625 C-0.0962413 30.73624695 -0.09482635 29.8318689 -0.09336853 28.90008545 C-0.08777911 26.01668973 -0.07522853 23.13337218 -0.0625 20.25 C-0.05748363 18.29296987 -0.05292096 16.33593853 -0.04882812 14.37890625 C-0.03781313 9.58590747 -0.02055574 4.79296698 0 0 Z " fill="#A40707" transform="translate(1725,1953)"/>
<path d="M0 0 C0.33 0 0.66 0 1 0 C2.41721324 15.8517925 -3.31595051 30.42208483 -9 45 C-0.36564256 39.65571686 7.83271831 33.86523578 15.9609375 27.78515625 C16.92257812 27.07230469 17.88421875 26.35945313 18.875 25.625 C20.17050781 24.65433594 20.17050781 24.65433594 21.4921875 23.6640625 C23.93647911 22.04214938 26.24306534 20.97826714 29 20 C26.88198489 24.94203526 23.74391527 26.46392916 19.19140625 28.82421875 C16.50731204 30.26434773 14.34367745 32.0564626 12 34 C10.2813197 35.26437945 8.55107923 36.51312506 6.8125 37.75 C5.95269531 38.36359375 5.09289063 38.9771875 4.20703125 39.609375 C2 41 2 41 0 41 C0 41.66 0 42.32 0 43 C-1.093125 43.598125 -2.18625 44.19625 -3.3125 44.8125 C-5.44369643 46.01746217 -7.0095013 47.0095013 -8.75 48.75 C-9.1625 49.1625 -9.575 49.575 -10 50 C-10.99 50 -11.98 50 -13 50 C-12.5377702 46.90427672 -11.71956848 44.15444364 -10.546875 41.26953125 C-5.10024977 27.84001937 -2.37972005 14.26329051 0 0 Z " fill="#D5767B" transform="translate(1815,2111)"/>
<path d="M0 0 C0.33 0 0.66 0 1 0 C1.33 16.83 1.66 33.66 2 51 C-0.33333333 48.66666667 -2.66666667 46.33333333 -5 44 C-4.67 43.01 -4.34 42.02 -4 41 C-3.86025269 38.81104566 -3.77455826 36.61848183 -3.71875 34.42578125 C-3.68136719 33.11802734 -3.64398437 31.81027344 -3.60546875 30.46289062 C-3.56984899 29.07943894 -3.53469632 27.69597515 -3.5 26.3125 C-3.08698614 10.0563517 -3.08698614 10.0563517 -2 3 C-1.34 3 -0.68 3 0 3 C0 2.01 0 1.02 0 0 Z " fill="#990D0D" transform="translate(1788,1953)"/>
<path d="M0 0 C0.33 0 0.66 0 1 0 C1.01401855 1.2060791 1.01401855 1.2060791 1.02832031 2.43652344 C1.24526174 17.34592941 1.68311249 31.71099829 5.16015625 46.2890625 C6 50 6 50 6 54 C6.66 54 7.32 54 8 54 C8.32613281 54.99 8.65226562 55.98 8.98828125 57 C11.20841693 63.71478466 13.44246647 70.40425563 16 77 C12.1984431 76.44658512 9.80713102 75.46159982 6.71484375 73.19921875 C5.93689453 72.63396484 5.15894531 72.06871094 4.35742188 71.48632812 C3.15956055 70.5959082 3.15956055 70.5959082 1.9375 69.6875 C1.13505859 69.10548828 0.33261719 68.52347656 -0.49414062 67.92382812 C-4.25785895 65.1658503 -7.84377104 62.46415374 -11 59 C-5.50221023 59.34563708 -1.9698823 62.73429155 2.1875 66 C3.61757673 67.10534871 5.04852535 68.20957057 6.48046875 69.3125 C7.10848389 69.80363281 7.73649902 70.29476562 8.38354492 70.80078125 C9.99926566 72.0720292 9.99926566 72.0720292 12 73 C11.443125 71.845 10.88625 70.69 10.3125 69.5 C8.41614729 65.2096701 6.86362962 60.84016336 5.4375 56.375 C5.04433594 55.14523438 4.65117188 53.91546875 4.24609375 52.6484375 C0.72330164 40.07364532 -0.41541567 28.51929107 -0.1875 15.5625 C-0.17239734 14.04102915 -0.15871899 12.51954349 -0.14648438 10.99804688 C-0.11398617 7.33171438 -0.06252619 3.66595833 0 0 Z " fill="#DA7478" transform="translate(1697,2084)"/>
<path d="M0 0 C2.0625 -0.375 2.0625 -0.375 5 0 C7.53572282 1.79177109 9.77174488 3.84238121 12 6 C11.01 6.66 10.02 7.32 9 8 C9 7.01 9 6.02 9 5 C8.34 5 7.68 5 7 5 C7.0714624 6.11415283 7.1429248 7.22830566 7.21655273 8.3762207 C7.97877437 20.99071935 8.12068254 33.55310569 8.0625 46.1875 C8.05746585 48.12434778 8.05290639 50.06119685 8.04882812 51.99804688 C8.0379951 56.66539756 8.02084053 61.33268372 8 66 C7.67 66 7.34 66 7 66 C5.91775692 58.92449483 5.70263473 51.84597963 5.49731445 44.70117188 C5.4378334 42.63657227 5.37271905 40.57221044 5.30664062 38.5078125 C5.13113137 32.8450093 4.97522767 27.1894464 5.0234375 21.5234375 C5.0424538 17.28059128 4.71827489 13.2116772 4.1875 9 C3.96126953 7.081875 3.96126953 7.081875 3.73046875 5.125 C3.30826204 1.71154244 3.30826204 1.71154244 0 0 Z " fill="#E4545E" transform="translate(1917,1907)"/>
<path d="M0 0 C2.77999513 1.26151039 4.96096548 0.50247944 7.859375 -0.15625 C7.199375 1.16375 6.539375 2.48375 5.859375 3.84375 C5.199375 3.84375 4.539375 3.84375 3.859375 3.84375 C3.529375 4.50375 3.199375 5.16375 2.859375 5.84375 C2.3025 5.39257812 1.745625 4.94140625 1.171875 4.4765625 C-1.21357735 2.79223973 -3.4230279 1.77099034 -6.140625 0.71875 C-6.98625 0.38617187 -7.831875 0.05359375 -8.703125 -0.2890625 C-19.99685615 -4.30702454 -35.10046715 -3.54051022 -46.140625 0.84375 C-47.130625 1.33875 -47.130625 1.33875 -48.140625 1.84375 C-50.14022512 1.883742 -52.14109742 1.88721799 -54.140625 1.84375 C-54.470625 1.18375 -54.800625 0.52375 -55.140625 -0.15625 C-53.8103125 -0.28 -53.8103125 -0.28 -52.453125 -0.40625 C-48.8986075 -0.87877514 -45.81570553 -1.99244808 -42.453125 -3.21875 C-28.86985958 -7.49583358 -12.65221023 -6.83404056 0 0 Z " fill="#D68E94" transform="translate(1781.140625,1951.15625)"/>
<path d="M0 0 C1.36995117 0.02707031 1.36995117 0.02707031 2.76757812 0.0546875 C4.99203514 0.10127299 7.21416967 0.16664515 9.4375 0.25 C9.4375 0.58 9.4375 0.91 9.4375 1.25 C8.62667969 1.28738281 7.81585937 1.32476563 6.98046875 1.36328125 C-1.68006338 1.87746884 -9.35871086 3.51540362 -17.5625 6.25 C-18.88249328 9.53747599 -18.74848901 13.05181931 -18.84375 16.5546875 C-18.88113281 17.77800781 -18.91851563 19.00132813 -18.95703125 20.26171875 C-18.99183594 21.53660156 -19.02664063 22.81148437 -19.0625 24.125 C-19.13167095 26.64333484 -19.20446208 29.16157341 -19.28125 31.6796875 C-19.32668945 33.35393799 -19.32668945 33.35393799 -19.37304688 35.06201172 C-19.55878532 38.18749189 -19.98943162 41.17410769 -20.5625 44.25 C-20.8925 44.25 -21.2225 44.25 -21.5625 44.25 C-21.5625 32.37 -21.5625 20.49 -21.5625 8.25 C-22.8825 9.24 -24.2025 10.23 -25.5625 11.25 C-26.2225 10.92 -26.8825 10.59 -27.5625 10.25 C-26.42639483 9.32130368 -25.27781543 8.40787024 -24.125 7.5 C-23.48691406 6.98953125 -22.84882812 6.4790625 -22.19140625 5.953125 C-14.81331785 1.17326387 -8.75804768 -0.33412948 0 0 Z " fill="#E35962" transform="translate(1612.5625,1902.75)"/>
<path d="M0 0 C0.66 0 1.32 0 2 0 C3.17590823 31.30675464 2.96645819 61.88930217 -1 93 C-1.33 93 -1.66 93 -2 93 C-2.10847007 87.20287742 -2.0009795 81.46994847 -1.5625 75.6875 C0.21015994 50.4904052 0.13716835 25.24319627 0 0 Z " fill="#E64D57" transform="translate(1589,1911)"/>
<path d="M0 0 C1.32 0.33 2.64 0.66 4 1 C3.88125978 6.56857265 3.75698057 12.13698466 3.62768555 17.70532227 C3.58451521 19.59754116 3.54282841 21.48979453 3.50268555 23.38208008 C3.44454681 26.11029424 3.38098064 28.83833772 3.31640625 31.56640625 C3.29969376 32.40522842 3.28298126 33.2440506 3.26576233 34.10829163 C3.14830149 38.82140404 2.76772207 43.34722175 2 48 C1.67 48 1.34 48 1 48 C-0.11586638 31.99927319 -0.10778821 16.03391014 0 0 Z " fill="#CA1617" transform="translate(1929,1916)"/>
<path d="M0 0 C-2.33333333 2.33333333 -4.66666667 4.66666667 -7 7 C-7 7.99 -7 8.98 -7 10 C-6.030625 9.9278125 -5.06125 9.855625 -4.0625 9.78125 C20.80007763 8.02278428 20.80007763 8.02278428 31 10 C31 10.33 31 10.66 31 11 C30.40574219 10.99476318 29.81148437 10.98952637 29.19921875 10.98413086 C26.4661569 10.96314409 23.7331121 10.95027155 21 10.9375 C20.06542969 10.92912109 19.13085938 10.92074219 18.16796875 10.91210938 C12.66532797 10.89286937 7.44852923 11.26092506 2 12 C-0.14457411 12.08449075 -2.29126914 12.1304681 -4.4375 12.125 C-5.46746094 12.12757812 -6.49742188 12.13015625 -7.55859375 12.1328125 C-10 12 -10 12 -11 11 C-11.23192865 9.48530552 -11.41215238 7.96245438 -11.5625 6.4375 C-11.64628906 5.61121094 -11.73007813 4.78492188 -11.81640625 3.93359375 C-11.87699219 3.29550781 -11.93757813 2.65742187 -12 2 C-10.56656 1.46809459 -9.12804633 0.94984742 -7.6875 0.4375 C-6.48673828 0.00244141 -6.48673828 0.00244141 -5.26171875 -0.44140625 C-3 -1 -3 -1 0 0 Z " fill="#EF474C" transform="translate(1740,1951)"/>
<path d="M0 0 C0.11427673 12.71460452 0.01726146 25.32056251 -1 38 C-1.33 38 -1.66 38 -2 38 C-2 26.12 -2 14.24 -2 2 C-2.99 2.99 -3.98 3.98 -5 5 C-5.66 5 -6.32 5 -7 5 C-6.1875 3.0625 -6.1875 3.0625 -5 1 C-2 0 -2 0 0 0 Z " fill="#D73237" transform="translate(1589,1913)"/>
<path d="M0 0 C0.33 0 0.66 0 1 0 C2.56546117 11.90267998 3.2214892 23.03270718 2 35 C1.34 34.67 0.68 34.34 0 34 C0 22.78 0 11.56 0 0 Z " fill="#B30A0B" transform="translate(1728,1961)"/>
<path d="M0 0 C0 0.33 0 0.66 0 1 C-0.81082031 1.03738281 -1.62164063 1.07476563 -2.45703125 1.11328125 C-11.11756338 1.62746884 -18.79621086 3.26540362 -27 6 C-28.20882096 8.00016466 -28.20882096 8.00016466 -29 10 C-29 9.01 -29 8.02 -29 7 C-29.99 6.67 -30.98 6.34 -32 6 C-21.59629308 -1.10497058 -12.15846375 -0.64877178 0 0 Z " fill="#CF7378" transform="translate(1622,1903)"/>
<path d="M0 0 C2.77784537 1.06211735 5.41042774 2.20940191 8.0625 3.5625 C10.51650662 4.76339685 12.3714062 5.4424195 15 6 C17.3347961 6.66152556 19.66836622 7.32741333 22 8 C22 8.66 22 9.32 22 10 C23.32 10.33 24.64 10.66 26 11 C16.01273738 10.07525346 7.51292426 8.00926453 0 1 C0 0.67 0 0.34 0 0 Z " fill="#D0777B" transform="translate(1583,2037)"/>
<path d="M0 0 C0.33 0 0.66 0 1 0 C1.33 7.92 1.66 15.84 2 24 C1.01 23.34 0.02 22.68 -1 22 C-1.328125 19.0234375 -1.328125 19.0234375 -1.25 15.375 C-1.22421875 14.12203125 -1.1984375 12.8690625 -1.171875 11.578125 C-0.98355658 7.65767792 -0.61975371 3.87346066 0 0 Z " fill="#CC5E5F" transform="translate(1577,2008)"/>
<path d="M0 0 C-0.7425 0.721875 -1.485 1.44375 -2.25 2.1875 C-4.69290515 4.68592573 -6.8681047 7.23643202 -9 10 C-10 9 -10 9 -10.0625 5.9375 C-10.041875 4.968125 -10.02125 3.99875 -10 3 C-10.66 2.67 -11.32 2.34 -12 2 C-10.56656 1.46809459 -9.12804633 0.94984742 -7.6875 0.4375 C-6.48673828 0.00244141 -6.48673828 0.00244141 -5.26171875 -0.44140625 C-3 -1 -3 -1 0 0 Z " fill="#EF535C" transform="translate(1740,1951)"/>
<path d="M0 0 C0.66 0.33 1.32 0.66 2 1 C-0.13795552 4.22749055 -2.05748246 5.82402864 -5.5 7.5625 C-8.49440969 9.08465826 -10.73915391 10.50002596 -13 13 C-13.66 12.67 -14.32 12.34 -15 12 C-10.58990583 7.14889642 -5.41995647 3.651893 0 0 Z " fill="#CA7377" transform="translate(1842,2131)"/>
<path d="M0 0 C0 3.78713193 -1.26892594 5.83354401 -3 9.1875 C-3.556875 10.27417969 -4.11375 11.36085938 -4.6875 12.48046875 C-5.120625 13.31191406 -5.55375 14.14335938 -6 15 C-7.29223576 11.12329273 -7.02273869 8.9545896 -6 5 C-4.15307138 2.94272673 -2.28699308 1.6057611 0 0 Z " fill="#AA4444" transform="translate(1720,2009)"/>
<path d="M0 0 C0.8971875 0.309375 0.8971875 0.309375 1.8125 0.625 C-4.98110575 4.00464731 -11.79491743 5.97386481 -19.1875 7.625 C-18.1875 5.625 -18.1875 5.625 -15.3515625 4.625 C-13.59972656 4.13 -13.59972656 4.13 -11.8125 3.625 C-8.16657257 2.59023567 -3.4356956 -0.58897639 0 0 Z " fill="#DB646C" transform="translate(1927.1875,2039.375)"/>
<path d="M0 0 C5.44208234 0.34013015 8.93668198 3.70296528 13 7 C12.01 7.33 11.02 7.66 10 8 C7.51953125 6.6015625 7.51953125 6.6015625 4.8125 4.625 C3.91144531 3.97789062 3.01039062 3.33078125 2.08203125 2.6640625 C1.39496094 2.11492188 0.70789062 1.56578125 0 1 C0 0.67 0 0.34 0 0 Z " fill="#CC7278" transform="translate(1686,2143)"/>
<path d="M0 0 C-0.30618405 3.67420866 -0.75771784 4.78135513 -3.5625 7.3125 C-4.366875 7.869375 -5.17125 8.42625 -6 9 C-4.79618552 6.50638429 -3.54571278 4.31856917 -2 2 C-4.31 2 -6.62 2 -9 2 C-9 1.67 -9 1.34 -9 1 C-5.846632 0.29925156 -3.27275026 0 0 0 Z " fill="#C18485" transform="translate(1655,2045)"/>
<path d="M0 0 C1.65 0 3.3 0 5 0 C4.34 0.66 3.68 1.32 3 2 C3.99 3.65 4.98 5.3 6 7 C3.03 6.505 3.03 6.505 0 6 C0 4.02 0 2.04 0 0 Z " fill="#B14A4B" transform="translate(1858,2045)"/>
<path d="M0 0 C4.30764815 1.56641751 8.06171464 3.68336156 12 6 C10.265625 6.6796875 10.265625 6.6796875 8 7 C5.859375 5.8203125 5.859375 5.8203125 3.75 4.125 C3.04359375 3.57070312 2.3371875 3.01640625 1.609375 2.4453125 C1.07828125 1.96835938 0.5471875 1.49140625 0 1 C0 0.67 0 0.34 0 0 Z " fill="#D68C91" transform="translate(1583,2037)"/>
<path d="M0 0 C0.33 0 0.66 0 1 0 C1.12375 0.969375 1.2475 1.93875 1.375 2.9375 C1.58125 3.948125 1.7875 4.95875 2 6 C4.29629994 7.14814997 6.07698086 7.30769809 8.625 7.5625 C9.44226562 7.64628906 10.25953125 7.73007813 11.1015625 7.81640625 C11.72804688 7.87699219 12.35453125 7.93757813 13 8 C13 8.33 13 8.66 13 9 C11.02090602 9.02686553 9.04171029 9.04633375 7.0625 9.0625 C5.96035156 9.07410156 4.85820313 9.08570313 3.72265625 9.09765625 C1 9 1 9 0 8 C-0.14115161 5.32941149 -0.04247107 2.67567762 0 0 Z " fill="#E93D43" transform="translate(1729,1954)"/>
<path d="M0 0 C4.00653305 0.6163897 6.80463901 2.58572726 10 5 C10.33 5.99 10.66 6.98 11 8 C6.99698968 6.23867546 3.3971023 3.73867517 0 1 C0 0.67 0 0.34 0 0 Z " fill="#C6878C" transform="translate(1697,2151)"/>
<path d="M0 0 C2.25 -0.25 2.25 -0.25 5 0 C7.3125 2 7.3125 2 9 4 C8.01 4.33 7.02 4.66 6 5 C5.01 6.485 5.01 6.485 4 8 C3.896875 7.05125 3.79375 6.1025 3.6875 5.125 C3.31460705 1.70892499 3.31460705 1.70892499 0 0 Z " fill="#D3767D" transform="translate(1917,1907)"/>
<path d="M0 0 C0.99 0 1.98 0 3 0 C2.54554036 1.41791408 2.08625056 2.83428046 1.625 4.25 C1.36976562 5.03890625 1.11453125 5.8278125 0.8515625 6.640625 C0.04826333 8.86627958 -0.89711662 10.90931672 -2 13 C-3.45047396 10.09905209 -2.45356803 8.44027404 -1.5625 5.375 C-1.27503906 4.37210938 -0.98757813 3.36921875 -0.69140625 2.3359375 C-0.46324219 1.56507812 -0.23507812 0.79421875 0 0 Z " fill="#C67879" transform="translate(1710,2026)"/>
<path d="M0 0 C0.33 2.64 0.66 5.28 1 8 C-1.60608273 5.4837822 -3.89381685 2.94865641 -6 0 C-3.50907189 -1.24546405 -2.58919267 -0.7767578 0 0 Z " fill="#A83535" transform="translate(1789,1996)"/>
<path d="M0 0 C0 0.99 0 1.98 0 3 C-0.99 3.33 -1.98 3.66 -3 4 C-3.33 4.66 -3.66 5.32 -4 6 C-5.32 4.68 -6.64 3.36 -8 2 C-5.36 1.34 -2.72 0.68 0 0 Z " fill="#C66265" transform="translate(1788,1951)"/>
<path d="M0 0 C0.33 1.32 0.66 2.64 1 4 C1.66 4 2.32 4 3 4 C3 4.66 3 5.32 3 6 C1.35 6.33 -0.3 6.66 -2 7 C-1.125 2.25 -1.125 2.25 0 0 Z " fill="#D59398" transform="translate(1804,2154)"/>
<path d="M0 0 C1.98 0.66 3.96 1.32 6 2 C5.01 2.33 4.02 2.66 3 3 C1.31970006 3.97691857 -0.34928604 4.97388051 -2 6 C-1.49396008 3.83125748 -1.00016187 2.00032373 0 0 Z " fill="#D8B6B7" transform="translate(1729,1997)"/>
<path d="M0 0 C0.99 0.33 1.98 0.66 3 1 C-2.625 6 -2.625 6 -6 6 C-6 5.34 -6 4.68 -6 4 C-3.1875 1.8125 -3.1875 1.8125 0 0 Z " fill="#D05C60" transform="translate(1850,2125)"/>
</svg>
